# xmcd CD database file
#
# Track frame offsets:
#	150
#	17030
#	32090
#	48162
#	64132
#	81235
#	94807
#	110750
#	124955
#	140197
#	161357
#
# Disc length: 2383 seconds
#
# Revision: 9
# Processed by: cddbd v1.5.2PL0 Copyright (c) Steve Scherf et al.
# Submitted via: CDex 1.79
#
DISCID=97094d0b
DTITLE=Lee Ann Womack - Lee Ann Womack
DYEAR=1997
DGENRE=Country
TTITLE0=Never Again, Again
TTITLE1=A Man With 18 Wheels
TTITLE2=You've Got To Talk To Me
TTITLE3=The Fool
TTITLE4=Am I The Only Thing That You've Done Wrong
TTITLE5=Buckaroo
TTITLE6=Make Memories With Me (featuring Mark Chesnutt)
TTITLE7=Trouble's Here
TTITLE8=Do You Feel For Me
TTITLE9=Montgomery To Memphis
TTITLE10=Get Up In Jesus' Name
EXTD=YEAR: 1997
EXTT0=
EXTT1=
EXTT2=
EXTT3=
EXTT4=
EXTT5=
EXTT6=
EXTT7=
EXTT8=
EXTT9=
EXTT10=
PLAYORDER=
